{"title":"Jerusalem Countdown (Rel 2012) DVDRip NL Subs","uid":7031454,"size":707709207,"categoryP":"video","categoryS":"movies","magnet":"?xt=urn:btih:25a770d37c4ee0dbeb61dc5299807d81fa22d806&amp;dn=Jerusalem+Countdown+%28Rel+2012%29+DVDRip+NL+Subs&amp;tr=udp%3A%2F%2Ftracker.openbittorrent.com%3A80&amp;tr=udp%3A%2F%2Fopen.demonii.com%3A1337&amp;tr=udp%3A%2F%2Ftracker.coppersurfer.tk%3A6969&amp;tr=udp%3A%2F%2Fexodus.desync.com%3A6969","seeders":0,"leechers":2,"uploader":"NLUPPER002","files":-1,"time":1329232855,"description":"Jerusalem Countdown (Rel 2012) DVDRip NL Subs\n.\nSmall size great Quality\n.\nPG-13:&quot;Parents Strongly Cautioned. Some Material May Be Inappropriate For Children Under 13.&quot;\n.\n[IMG]http://img19.imageshack.us/img19/8084/jc2012.jpg[/IMG]\n.\nVerenigde Staten\nDrama\n\ngeregisseerd door Harold Cronk\nmet David A.R. White, Anna Zielinski en Randy Travis\n\nWanneer er nucleaire wapens naar de Verenigde Staten worden gesmokkeld, wordt FBI-agent Shane Daughtry (David A.R. White) geconfronteerd met een onmogelijke taak: ze vinden voordat ze ontploffen. De klok tikt door en de enige mensen die kunnen helpen zijn een louche wapenhandelaar (Lee Majors), een voormalige IsraÃƒâ„¢lische Mossad-agent (Stacey Keach) en de adjunct directeur van de CIA, Jack Thompson (Randy Travis).\n\nVanaf 15 februari te koop op DVD en Blu-Ray\n. &lt;a href=&quot;\nhttp://www.moviemeter.nl/film/76031&quot; rel=&quot;nofollow&quot; target=&quot;_NEW&quot;&gt;\nhttp://www.moviemeter.nl/film/76031&lt;/a&gt;\n.\nPLOT\n.\nWhen nuclear weapons are smuggled into America, FBI Agent Shane Daughtry (David A.R White) is faced with an impossible task -- find them before they are detonated... \n. &lt;a href=&quot;\nhttp://www.imdb.com/title/tt1562563/&quot; rel=&quot;nofollow&quot; target=&quot;_NEW&quot;&gt;\nhttp://www.imdb.com/title/tt1562563/&lt;/a&gt;\n.\nINFO\n.\nSource: DVD5\nSubs: Dutch VOBSubs\n.\nFormat                                   : AVI\nFormat/Info                              : Audio Video Interleave\nFile size                                : 672 MiB\nDuration                                 : 1h 21mn\nOverall bit rate                         : 1 147 Kbps\nWriting application                      : Lavf53.21.0\n\nVideo\nFormat                                   : MPEG-4 Visual\nFormat profile                           : Advanced Simple@L5\nFormat settings, BVOP                    : 2\nFormat settings, QPel                    : No\nFormat settings, GMC                     : No warppoints\nFormat settings, Matrix                  : Default (H.263)\nMuxing mode                              : Packed bitstream\nCodec ID                                 : DX50\nCodec ID/Hint                            : DivX 5\nDuration                                 : 1h 21mn\nBit rate                                 : 1 006 Kbps\nWidth                                    : 640 pixels\nHeight                                   : 360 pixels\nDisplay aspect ratio                     : 16:9\nFrame rate                               : 25.000 fps\nColor space                              : YUV\nChroma subsampling                       : 4:2:0\nBit depth                                : 8 bits\nScan type                                : Progressive\nCompression mode                         : Lossy\nBits/(Pixel*Frame)                       : 0.175\nStream size                              : 590 MiB (88%)\nWriting library                          : XviD 1.2.1 (UTC 2008-12-04)\n\nAudio\nID                                       : 1\nFormat                                   : MPEG Audio\nFormat version                           : Version 1\nFormat profile                           : Layer 3\nMode                                     : Joint stereo\nMode extension                           : MS Stereo\nCodec ID                                 : 55\nCodec ID/Hint                            : MP3\nDuration                                 : 1h 21mn\nBit rate mode                            : Constant\nBit rate                                 : 128 Kbps\nChannel(s)                               : 2 channels\nSampling rate                            : 48.0 KHz\nCompression mode                         : Lossy\nStream size                              : 75.0 MiB (11%)\nAlignment                                : Aligned on interleaves\nInterleave, duration                     : 24 ms (0.60 video frame)\n.\nEnjoy\n","torrent":{"xt":"urn:btih:25a770d37c4ee0dbeb61dc5299807d81fa22d806","amp;dn":"Jerusalem+Countdown+%28Rel+2012%29+DVDRip+NL+Subs","amp;tr":["udp%3A%2F%2Ftracker.openbittorrent.com%3A80","udp%3A%2F%2Fopen.demonii.com%3A1337","udp%3A%2F%2Ftracker.coppersurfer.tk%3A6969","udp%3A%2F%2Fexodus.desync.com%3A6969"],"infoHash":"25a770d37c4ee0dbeb61dc5299807d81fa22d806","infoHashBuffer":{"type":"Buffer","data":[37,167,112,211,124,78,224,219,235,97,220,82,153,128,125,129,250,34,216,6]},"announce":[],"urlList":[]}}